<svg width="18" height="18" viewBox="0 0 18 18" fill="none" xmlns="http://www.w3.org/2000/svg">
<circle cx="9" cy="9" r="9" fill="black"/>
<path d="M8.904 13.143C10.334 13.143 11.489 12.285 11.489 10.844C11.489 9.744 10.73 9.018 9.784 8.798V8.754C10.631 8.435 11.214 7.786 11.214 6.807C11.214 5.531 10.224 4.783 8.871 4.783C7.936 4.783 7.221 5.19 6.616 5.751L7.155 6.389C7.606 5.927 8.178 5.608 8.827 5.608C9.663 5.608 10.191 6.114 10.191 6.884C10.191 7.753 9.619 8.424 7.958 8.424V9.194C9.817 9.194 10.466 9.843 10.466 10.8C10.466 11.735 9.784 12.307 8.827 12.307C7.914 12.307 7.298 11.878 6.825 11.383L6.319 12.043C6.847 12.615 7.639 13.143 8.904 13.143Z" fill="white"/>
</svg>
