<svg width="23" height="23" viewBox="0 0 23 23" fill="none" xmlns="http://www.w3.org/2000/svg">
<path d="M11.4918 0C5.13026 0 0 4.44012 0 9.83049C0 13.3293 2.13419 16.3931 5.33547 18.1425L4.25196 22.5205C4.23153 22.5862 4.22839 22.6566 4.24289 22.724C4.25739 22.7914 4.28895 22.8532 4.33405 22.9023C4.3998 22.9651 4.48441 22.9998 4.57209 23C4.64479 22.9937 4.71376 22.9626 4.76909 22.9112L9.43148 19.5101C10.1197 19.6129 10.8135 19.6662 11.5082 19.6699C17.8615 19.6699 23 15.2297 23 9.83049C23 4.43124 17.8451 0 11.4918 0Z" fill="#392020"/>
<path d="M4.02178 8.27652H2.7659C2.61024 8.2814 2.45651 8.23827 2.32265 8.15218C2.26322 8.1119 2.21213 8.05874 2.17257 7.99608C2.13302 7.93343 2.10587 7.8626 2.09282 7.78806C2.08883 7.7408 2.08883 7.69332 2.09282 7.64605C2.08891 7.55762 2.10478 7.46942 2.13908 7.38903C2.17337 7.30864 2.22508 7.23842 2.28982 7.18426C2.43292 7.07214 2.60564 7.01291 2.78232 7.01548H6.56638C6.72328 7.00951 6.87806 7.05605 7.00963 7.1487C7.07047 7.1872 7.12264 7.23989 7.16238 7.30285C7.20213 7.36582 7.22846 7.43752 7.23947 7.51283C7.24347 7.55712 7.24347 7.60176 7.23947 7.64605C7.24334 7.73576 7.22751 7.82517 7.19326 7.90698C7.15902 7.98879 7.10734 8.06059 7.04247 8.11663C6.90285 8.22861 6.73179 8.28512 6.55817 8.27652H5.34333V12.9476C5.34827 13.0471 5.33403 13.1466 5.30153 13.2398C5.26903 13.3331 5.21898 13.418 5.15454 13.4892C5.09275 13.5573 5.01847 13.6107 4.93648 13.6459C4.85448 13.6811 4.76659 13.6973 4.67845 13.6935C4.52429 13.6982 4.37341 13.6449 4.25162 13.5426C4.13567 13.4426 4.05698 13.3006 4.02999 13.1429C4.02188 13.0781 4.02188 13.0124 4.02999 12.9476L4.02178 8.27652Z" fill="#FEE500"/>
<path d="M7.60179 7.36171C7.63789 7.21557 7.72268 7.08903 7.83984 7.00647C7.96467 6.92993 8.10691 6.893 8.25026 6.89991H8.56218C8.71428 6.89402 8.86491 6.93399 8.99723 7.01536C9.13744 7.11737 9.23707 7.27269 9.27632 7.45049L10.918 12.4679C10.9606 12.5988 10.9962 12.7323 11.0247 12.8676C11.0275 12.9238 11.0275 12.98 11.0247 13.0362C11.0275 13.1228 11.0128 13.2089 10.9816 13.2887C10.9504 13.3685 10.9035 13.4399 10.8441 13.498C10.7866 13.5618 10.7176 13.6121 10.6413 13.6457C10.5651 13.6793 10.4832 13.6955 10.4009 13.6934C10.2743 13.707 10.1471 13.6741 10.0399 13.6C9.93268 13.5259 9.85165 13.4149 9.80986 13.2849L9.46511 12.1926H7.30629L6.96153 13.2849C6.92076 13.4175 6.83874 13.5306 6.72948 13.6051C6.62021 13.6796 6.49045 13.7108 6.36231 13.6934C6.22351 13.6973 6.08755 13.6503 5.97651 13.5601C5.86834 13.4671 5.79535 13.3345 5.7713 13.1872C5.76695 13.137 5.76695 13.0864 5.7713 13.0362C5.75721 12.9481 5.75721 12.858 5.7713 12.7699C5.7713 12.6722 5.82876 12.5656 5.8616 12.4679L7.60179 7.36171ZM8.42264 8.52508L7.64283 11.1892H9.19423L8.42264 8.52508Z" fill="#FEE500"/>
<path d="M11.2127 7.64613C11.2043 7.44684 11.2693 7.2521 11.3933 7.10444C11.4563 7.03566 11.532 6.9819 11.6154 6.94672C11.6988 6.91154 11.7881 6.89563 11.8776 6.90011C12.0313 6.89817 12.1814 6.95128 12.3044 7.05111C12.4184 7.15528 12.4941 7.30017 12.5178 7.45957C12.5259 7.52142 12.5259 7.58427 12.5178 7.64613V12.3171H14.7751C14.9316 12.3149 15.0854 12.3611 15.2184 12.4503C15.2781 12.4901 15.3295 12.5432 15.3691 12.6059C15.4087 12.6686 15.4356 12.7397 15.4482 12.8144C15.4482 12.8144 15.4482 12.9032 15.4482 12.9476C15.4521 13.036 15.4362 13.1241 15.4019 13.2045C15.3676 13.2849 15.3159 13.3552 15.2512 13.4094C15.1081 13.5215 14.9354 13.5806 14.7587 13.5781H11.9843C11.8076 13.5904 11.6319 13.5406 11.4835 13.4361C11.3508 13.3287 11.2624 13.1693 11.2373 12.992C11.2313 12.8945 11.2313 12.7965 11.2373 12.6989L11.2127 7.64613Z" fill="#FEE500"/>
<path d="M15.5961 7.64617C15.5912 7.44746 15.6557 7.25406 15.7767 7.10449C15.8997 6.98355 16.0576 6.91214 16.2235 6.90243C16.3895 6.89273 16.5535 6.94527 16.6879 7.05116C16.8044 7.15441 16.883 7.29923 16.9095 7.45961C16.9135 7.5217 16.9135 7.58409 16.9095 7.64617V9.82178L18.9862 7.22872C19.0662 7.14026 19.1512 7.0573 19.2407 6.98016C19.325 6.92584 19.4216 6.89808 19.5197 6.90016C19.6632 6.89931 19.8035 6.94579 19.922 7.03338C19.9778 7.07404 20.0254 7.1265 20.0621 7.18753C20.0988 7.24856 20.1237 7.31693 20.1354 7.38861C20.1387 7.40619 20.1387 7.42437 20.1354 7.44194C20.1314 7.46244 20.1314 7.48356 20.1354 7.50406C20.1351 7.5975 20.1125 7.68932 20.0697 7.77051C20.0262 7.85647 19.9738 7.9368 19.9138 8.01018L18.5512 9.62644L20.1928 12.3793V12.4681C20.2781 12.5953 20.3445 12.7362 20.3898 12.8855V12.9299C20.3993 13.0327 20.3856 13.1366 20.3499 13.2325C20.3141 13.3284 20.2574 13.4134 20.1846 13.4804C20.0477 13.5924 19.8802 13.6518 19.7085 13.6492C19.5945 13.6543 19.4812 13.6266 19.3802 13.5692C19.2709 13.4899 19.1808 13.3833 19.1175 13.2584L17.5908 10.5944L16.8602 11.4203V12.9032C16.8652 13.1019 16.8007 13.2953 16.6797 13.4449C16.6148 13.5135 16.5376 13.567 16.4529 13.6022C16.3682 13.6373 16.2778 13.6533 16.1871 13.6492C16.0357 13.6526 15.8878 13.5993 15.7685 13.4982C15.6526 13.3982 15.5739 13.2564 15.5469 13.0986C15.5388 13.0338 15.5388 12.968 15.5469 12.9032L15.5961 7.64617Z" fill="#FEE500"/>
</svg>
